<?xml version="1.0" encoding="UTF-8"?><svg id="Capa_1" xmlns="http://www.w3.org/2000/svg" viewBox="0 0 2458 512"><defs><style>.cls-1{fill:#0047bb;}.cls-2{fill:#003087;}.cls-3{fill:#e5e1e6;}.cls-4{fill:#e4002b;}.cls-5{fill:#a50034;}</style></defs><g><polygon class="cls-5" points="33 181.98 356.75 239.07 356.75 456.92 33 399.81 33 181.98"/><polygon class="cls-4" points="599.56 147.52 599.56 365.37 356.75 456.92 356.75 239.07 599.56 147.52"/><polygon class="cls-1" points="843.54 55.97 843.62 273.82 599.56 365.37 599.56 147.52 843.54 55.97"/><polygon class="cls-2" points="1166.11 181.93 1166.11 399.78 843.62 273.82 843.54 55.97 1166.11 181.93"/><polygon class="cls-3" points="1166.11 422.38 509.02 422.38 843.62 296.42 1166.11 422.38"/><polygon class="cls-3" points="33 159.38 508.15 159.38 356.75 216.47 33 159.38"/></g><g><g><path class="cls-2" d="M1329.35,360.76c-5.46,0-10.48-1.01-15.07-3.01-4.59-2.01-8.58-4.75-11.95-8.24-3.37-3.48-6.01-7.59-7.91-12.33-1.9-4.74-2.85-9.8-2.85-15.18v-.21c0-5.31,.95-10.33,2.85-15.07,1.9-4.73,4.54-8.88,7.91-12.43,3.37-3.55,7.39-6.35,12.06-8.39,4.66-2.05,9.76-3.07,15.29-3.07,3.45,0,6.55,.28,9.31,.86,2.76,.58,5.33,1.38,7.7,2.42,2.37,1.04,4.56,2.3,6.56,3.77,2.01,1.47,3.95,3.1,5.81,4.9l-5.81,6.24c-3.23-3.01-6.69-5.49-10.39-7.43-3.7-1.94-8.13-2.9-13.29-2.9-4.17,0-8.02,.79-11.58,2.37-3.55,1.58-6.64,3.77-9.26,6.57-2.62,2.8-4.67,6.08-6.14,9.85-1.47,3.77-2.21,7.8-2.21,12.11v.21c0,4.38,.74,8.45,2.21,12.22,1.47,3.77,3.51,7.05,6.14,9.85,2.62,2.8,5.7,5.01,9.26,6.62,3.55,1.62,7.41,2.42,11.58,2.42,5.16,0,9.61-.95,13.35-2.85,3.73-1.9,7.39-4.58,10.98-8.02l5.6,5.49c-1.94,2.01-3.97,3.82-6.08,5.44-2.12,1.62-4.4,3-6.84,4.15-2.44,1.15-5.06,2.04-7.86,2.69-2.8,.65-5.93,.97-9.37,.97Z"/><path class="cls-2" d="M1453.64,360.76c-5.74,0-10.96-1.04-15.66-3.12-4.7-2.08-8.74-4.9-12.11-8.45-3.38-3.55-5.98-7.68-7.81-12.38-1.83-4.7-2.74-9.63-2.74-14.8v-.21c0-5.17,.93-10.12,2.8-14.85,1.87-4.74,4.49-8.88,7.86-12.44,3.38-3.55,7.43-6.39,12.17-8.5,4.74-2.11,9.97-3.17,15.72-3.17s10.96,1.04,15.66,3.12c4.7,2.08,8.74,4.9,12.11,8.45,3.38,3.55,5.98,7.68,7.81,12.38,1.83,4.7,2.75,9.64,2.75,14.8,.07,.07,.07,.14,0,.21,0,5.17-.93,10.12-2.8,14.86-1.87,4.73-4.49,8.88-7.86,12.43-3.38,3.55-7.43,6.39-12.16,8.5-4.74,2.12-9.98,3.18-15.72,3.18Zm.22-7.86c4.31,0,8.27-.81,11.89-2.42,3.63-1.61,6.73-3.82,9.31-6.62,2.59-2.8,4.61-6.06,6.08-9.8,1.47-3.73,2.21-7.75,2.21-12.06v-.21c0-4.31-.74-8.34-2.21-12.11-1.47-3.77-3.54-7.05-6.19-9.85-2.66-2.8-5.79-5.02-9.41-6.67-3.63-1.65-7.59-2.48-11.9-2.48s-8.27,.81-11.9,2.42c-3.63,1.62-6.73,3.82-9.31,6.62-2.59,2.8-4.61,6.07-6.08,9.8-1.47,3.73-2.21,7.75-2.21,12.06v.21c0,4.31,.74,8.34,2.21,12.11,1.47,3.77,3.53,7.05,6.19,9.85,2.66,2.8,5.8,5.03,9.42,6.68,3.63,1.65,7.59,2.47,11.9,2.47Z"/><path class="cls-2" d="M1556.71,284.11h7.97l47.48,60.39v-60.39h8.29v75.36h-6.78l-48.66-61.79v61.79h-8.29v-75.36Z"/><path class="cls-2" d="M1714.28,360.55c-6.03,0-11.54-.99-16.52-2.96-4.99-1.97-9.74-5-14.26-9.1l5.28-6.25c3.94,3.59,7.93,6.26,11.95,8.02,4.02,1.76,8.65,2.64,13.89,2.64s9.17-1.2,12.22-3.61c3.04-2.4,4.57-5.47,4.57-9.2v-.21c0-1.72-.29-3.28-.86-4.68-.57-1.4-1.58-2.67-3.02-3.82-1.44-1.15-3.43-2.19-5.99-3.12-2.55-.93-5.81-1.83-9.77-2.69-4.31-.93-8.08-2.01-11.28-3.23-3.2-1.22-5.85-2.69-7.93-4.41-2.09-1.72-3.63-3.73-4.64-6.03-1.01-2.3-1.51-4.99-1.51-8.08v-.21c0-2.94,.61-5.67,1.83-8.18,1.21-2.51,2.94-4.68,5.16-6.51,2.23-1.83,4.85-3.27,7.86-4.31,3.01-1.04,6.31-1.56,9.9-1.56,5.53,0,10.35,.77,14.48,2.31,4.13,1.55,8.13,3.86,12,6.95l-4.95,6.56c-3.52-2.87-7.05-4.95-10.6-6.24-3.55-1.29-7.27-1.94-11.14-1.94-4.95,0-8.87,1.17-11.73,3.5-2.87,2.34-4.31,5.22-4.31,8.67v.21c0,1.79,.28,3.39,.86,4.79,.57,1.4,1.62,2.69,3.12,3.87,1.51,1.18,3.59,2.26,6.25,3.23,2.66,.97,6.07,1.88,10.23,2.75,8.4,1.87,14.59,4.45,18.57,7.75,3.98,3.3,5.97,7.82,5.97,13.57v.21c0,3.23-.64,6.16-1.91,8.77-1.27,2.62-3.03,4.86-5.28,6.73-2.24,1.87-4.94,3.31-8.1,4.31-3.16,1-6.6,1.51-10.33,1.51Z"/><path class="cls-2" d="M1833.79,360.65c-4.67,0-8.92-.7-12.76-2.1-3.84-1.4-7.14-3.48-9.91-6.25-2.76-2.76-4.9-6.19-6.41-10.28-1.51-4.09-2.26-8.79-2.26-14.1v-43.82h8.5v43.28c0,8.18,2.02,14.46,6.08,18.84,4.05,4.38,9.7,6.57,16.95,6.57s12.49-2.08,16.58-6.25c4.09-4.16,6.14-10.37,6.14-18.62v-43.82h8.5v43.17c0,5.53-.75,10.37-2.26,14.54-1.51,4.16-3.64,7.64-6.41,10.44-2.76,2.8-6.06,4.9-9.9,6.3-3.84,1.4-8.13,2.1-12.86,2.1Z"/><path class="cls-2" d="M1932.9,284.11h8.5v67.5h42.42v7.86h-50.92v-75.36Z"/><path class="cls-2" d="M2054.7,291.97h-25.29v-7.86h59.1v7.86h-25.3v67.5h-8.5v-67.5Z"/><path class="cls-2" d="M2150.24,284.11h8.5v75.36h-8.5v-75.36Z"/><path class="cls-2" d="M2227.61,284.11h7.97l47.48,60.39v-60.39h8.29v75.36h-6.78l-48.66-61.79v61.79h-8.29v-75.36Z"/><path class="cls-2" d="M2394.42,360.76c-5.96,0-11.29-1.01-15.99-3.01-4.7-2.01-8.72-4.77-12.06-8.29-3.33-3.52-5.88-7.63-7.64-12.33-1.76-4.7-2.64-9.74-2.64-15.13v-.21c0-5.17,.92-10.1,2.75-14.8,1.83-4.7,4.39-8.85,7.69-12.44,3.3-3.59,7.27-6.44,11.9-8.56,4.63-2.11,9.77-3.17,15.45-3.17,3.15,0,6.04,.21,8.66,.65,2.62,.43,5.06,1.07,7.32,1.94,2.27,.86,4.38,1.92,6.35,3.18,1.97,1.25,3.89,2.67,5.76,4.25l-5.49,6.46c-1.44-1.29-2.94-2.46-4.52-3.5-1.58-1.04-3.29-1.94-5.12-2.69-1.83-.76-3.84-1.35-6.03-1.78-2.19-.43-4.61-.65-7.27-.65-4.17,0-8.01,.83-11.52,2.48-3.52,1.65-6.53,3.87-9.04,6.67-2.52,2.8-4.49,6.08-5.93,9.85-1.43,3.77-2.15,7.73-2.15,11.9v.21c0,4.52,.7,8.69,2.09,12.49,1.4,3.81,3.4,7.11,5.98,9.91,2.58,2.8,5.7,4.99,9.36,6.57,3.66,1.58,7.79,2.37,12.38,2.37,4.31,0,8.36-.74,12.16-2.21,3.81-1.47,7-3.25,9.59-5.33v-18.73h-22.93v-7.64h31.11v30.03c-3.51,3.16-7.84,5.87-12.97,8.13-5.13,2.26-10.89,3.39-17.27,3.39Z"/></g><g><path class="cls-2" d="M1292.2,152.84h43.2c6.22,0,11.74,.89,16.58,2.66,4.83,1.77,8.83,4.24,11.98,7.39,2.49,2.49,4.4,5.4,5.74,8.75,1.34,3.35,2.01,7.04,2.01,11.05v.29c0,4.21-.67,7.97-2.01,11.26-1.34,3.3-3.23,6.18-5.67,8.61-2.44,2.44-5.33,4.45-8.68,6.03-3.35,1.58-6.99,2.7-10.91,3.37l30.86,41.05h-13.92l-29.14-39.04h-28.71v39.04h-11.34v-100.48Zm42.28,51.24c3.74,0,7.2-.48,10.36-1.44,3.17-.95,5.9-2.32,8.2-4.09,2.3-1.77,4.1-3.92,5.4-6.46,1.29-2.53,1.94-5.43,1.94-8.69v-.28c0-6.22-2.25-11.08-6.76-14.57-4.5-3.49-10.84-5.24-18.99-5.24h-31.08v40.77h30.94Z"/><path class="cls-2" d="M1544.74,152.13h10.62l45.79,101.19h-12.2l-11.77-26.55h-54.69l-11.91,26.55h-11.63l45.79-101.19Zm27.99,64.45l-22.82-51.24-22.97,51.24h45.79Z"/><path class="cls-2" d="M1728.51,152.84h11.34v90h56.55v10.48h-67.89v-100.48Z"/><path class="cls-2" d="M1924.24,152.84h11.34v60l57.7-60h14.64l-43.06,43.92,44.93,56.55h-14.21l-38.61-48.66-21.39,21.68v26.98h-11.34v-100.48Z"/><path class="cls-2" d="M2136.12,152.84h72.63v10.19h-61.29v34.59h54.83v10.19h-54.83v35.31h62.01v10.19h-73.34v-100.48Z"/><path class="cls-2" d="M2339.04,152.84h10.62l63.3,80.52v-80.52h11.05v100.48h-9.04l-64.88-82.39v82.39h-11.05v-100.48Z"/></g></g></svg>